<svg width="1185" height="1751" viewBox="0 0 1185 1751" class="keymap" xmlns="http://www.w3.org/2000/svg" xmlns:xlink="http://www.w3.org/1999/xlink">
<style>/* inherit to force styles through use tags */
svg path {
    fill: inherit;
}

/* font and background color specifications */
svg.keymap {
    font-family: SFMono-Regular,Consolas,Liberation Mono,Menlo,monospace;
    font-size: 14px;
    font-kerning: normal;
    text-rendering: optimizeLegibility;
    fill: #24292e;
}

/* default key styling */
rect.key {
    fill: #f6f8fa;
}

rect.key, rect.combo {
    stroke: #c9cccf;
    stroke-width: 1;
}

/* default key side styling, only used is draw_key_sides is set */
rect.side {
    filter: brightness(90%);
}

/* color accent for combo boxes */
rect.combo, rect.combo-separate {
    fill: #cdf;
}

/* color accent for held keys */
rect.held, rect.combo.held {
    fill: #fdd;
}

/* color accent for ghost (optional) keys */
rect.ghost, rect.combo.ghost {
    stroke-dasharray: 4, 4;
    stroke-width: 2;
}

text {
    text-anchor: middle;
    dominant-baseline: middle;
}

/* styling for layer labels */
text.label {
    font-weight: bold;
    text-anchor: start;
    stroke: white;
    stroke-width: 4;
    paint-order: stroke;
}

/* styling for optional footer */
text.footer {
    text-anchor: end;
    dominant-baseline: auto;
    stroke: white;
    stroke-width: 4;
    paint-order: stroke;
}

/* styling for combo tap, and key non-tap label text */
text.combo, text.hold, text.shifted, text.left, text.right {
    font-size: 11px;
}

text.hold {
    text-anchor: middle;
    dominant-baseline: auto;
}

text.shifted {
    text-anchor: middle;
    dominant-baseline: hanging;
}

text.left {
    text-anchor: start;
}

text.right {
    text-anchor: end;
}

text.layer-activator {
    text-decoration: underline;
}

/* styling for hold/shifted label text in combo box */
text.combo.hold, text.combo.shifted, text.combo.left, text.combo.right {
    font-size: 8px;
}

/* lighter symbol for transparent keys */
text.trans {
    fill: #7b7e81;
}

/* styling for combo dendrons */
path.combo {
    stroke-width: 1;
    stroke: gray;
    fill: none;
}

/* Start Tabler Icons Cleanup */
/* cannot use height/width with glyphs */
.icon-tabler > path {
    fill: inherit;
    stroke: inherit;
    stroke-width: 2;
}
/* hide tabler's default box */
.icon-tabler > path[stroke="none"][fill="none"] {
    visibility: hidden;
}
/* End Tabler Icons Cleanup */

svg.keymap { fill: #d1d6db; }
rect.key { fill: #3f4750; }
rect.key, rect.combo { stroke: #60666c; }
rect.combo, rect.combo-separate { fill: #1f3d7a; }
rect.held, rect.combo.held { fill: #854747; }
text.label, text.footer { stroke: black; }
text.trans { fill: #7e8184; }
path.combo { stroke: #7f7f7f; }

/* Gruvbox Dark Theme for Corne keymap - Portrait orientation */

/* Background and main container */
svg { 
  background-color: #1d2021; 
}

/* Default key styling */
.key { 
  fill: #3c3836; 
  stroke: #504945; 
  stroke-width: 1; 
}

/* Key text styling - FIXED */
.key .tap, .key .hold, .key .shifted { 
  fill: #ffffff; 
  font-family: 'Fira Code', 'JetBrains Mono', monospace;
  text-rendering: geometricPrecision;
  shape-rendering: crispEdges;
  stroke: none !important;
  stroke-width: 0;
  paint-order: normal;
  filter: none;
  -webkit-font-smoothing: antialiased;
}

/* Remove any text shadows globally */
text {
  text-shadow: none;
  stroke: none;
  stroke-width: 0;
}

/* Layer-specific key colors using Gruvbox palette */
.key.layer-0 { fill: #3c3836; }
.key.layer-1 { fill: #fb4934; }
.key.layer-2 { fill: #cc241d; }
.key.layer-3 { fill: #b16286; }
.key.layer-4 { fill: #458588; }
.key.layer-5 { fill: #d79921; }
.key.layer-6 { fill: #689d6a; }

/* Held keys */
.held { 
  fill: #d79921; 
  stroke: #fabd2f; 
  stroke-width: 2; 
}

/* Ghost/transparent keys */
.ghost { 
  fill: #282828; 
  stroke: #665c54; 
  stroke-width: 1; 
  opacity: 0.6; 
}

/* Combo styling */
.combo { 
  fill: #689d6a; 
  stroke: #8ec07c; 
  stroke-width: 1; 
  font-size: 11px; 
}
.combo .label { 
  fill: #1d2021; 
  font-weight: bold;
  stroke: none;
  stroke-width: 0;
}

/* Layer labels and headers */
.layer-header { 
  fill: #ffffff; 
  font-size: 16px; 
  font-weight: bold;
  stroke: none;
  stroke-width: 0;
}

/* Special key types - tweaked colors */
.mod { fill: #689d6a; } /* Modifier keys - changed to aqua to differentiate from held */
.trans { fill: #928374; opacity: 0.5; } /* Transparent keys - reduced opacity */
.none { fill: #282828; opacity: 0.3; } /* Empty keys */

/* Improve text contrast */
.key.layer-1 .tap, .key.layer-1 .hold { 
  fill: #ffffff;
  stroke: none;
}
.key.layer-2 .tap, .key.layer-2 .hold { 
  fill: #ffffff;
  stroke: none;
}
.key.layer-3 .tap, .key.layer-3 .hold { 
  fill: #ffffff;
  stroke: none;
}
.held .tap, .held .hold { 
  fill: #1d2021; 
  font-weight: bold;
  stroke: none;
}
</style>
<g transform="translate(30, 0)" class="layer-default">
<text x="0" y="28" class="label" id="default">default:</text>
<g transform="translate(0, 56)">
<g transform="translate(38, 66)" class="key keypos-0">
<rect rx="6" ry="6" x="-36" y="-36" width="71" height="71" class="key"/>
<text x="0" y="0" class="key tap">TAB</text>
</g>
<g transform="translate(112, 66)" class="key keypos-1">
<rect rx="6" ry="6" x="-36" y="-36" width="71" height="71" class="key"/>
<text x="0" y="0" class="key tap">Q</text>
</g>
<g transform="translate(188, 47)" class="key keypos-2">
<rect rx="6" ry="6" x="-36" y="-36" width="71" height="71" class="key"/>
<text x="0" y="0" class="key tap">W</text>
</g>
<g transform="translate(262, 38)" class="key keypos-3">
<rect rx="6" ry="6" x="-36" y="-36" width="71" height="71" class="key"/>
<text x="0" y="0" class="key tap">E</text>
</g>
<g transform="translate(338, 47)" class="key keypos-4">
<rect rx="6" ry="6" x="-36" y="-36" width="71" height="71" class="key"/>
<text x="0" y="0" class="key tap">R</text>
</g>
<g transform="translate(412, 56)" class="key keypos-5">
<rect rx="6" ry="6" x="-36" y="-36" width="71" height="71" class="key"/>
<text x="0" y="0" class="key tap">T</text>
</g>
<g transform="translate(712, 56)" class="key keypos-6">
<rect rx="6" ry="6" x="-36" y="-36" width="71" height="71" class="key"/>
<text x="0" y="0" class="key tap">Y</text>
</g>
<g transform="translate(788, 47)" class="key keypos-7">
<rect rx="6" ry="6" x="-36" y="-36" width="71" height="71" class="key"/>
<text x="0" y="0" class="key tap">U</text>
</g>
<g transform="translate(862, 38)" class="key keypos-8">
<rect rx="6" ry="6" x="-36" y="-36" width="71" height="71" class="key"/>
<text x="0" y="0" class="key tap">I</text>
</g>
<g transform="translate(938, 47)" class="key keypos-9">
<rect rx="6" ry="6" x="-36" y="-36" width="71" height="71" class="key"/>
<text x="0" y="0" class="key tap">O</text>
</g>
<g transform="translate(1012, 66)" class="key keypos-10">
<rect rx="6" ry="6" x="-36" y="-36" width="71" height="71" class="key"/>
<text x="0" y="0" class="key tap">P</text>
</g>
<g transform="translate(1088, 66)" class="key keypos-11">
<rect rx="6" ry="6" x="-36" y="-36" width="71" height="71" class="key"/>
<text x="0" y="0" class="key tap">BSPC</text>
</g>
<g transform="translate(38, 141)" class="key keypos-12">
<rect rx="6" ry="6" x="-36" y="-36" width="71" height="71" class="key"/>
<text x="0" y="0" class="key tap">LCTRL</text>
</g>
<g transform="translate(112, 141)" class="key keypos-13">
<rect rx="6" ry="6" x="-36" y="-36" width="71" height="71" class="key"/>
<text x="0" y="0" class="key tap">A</text>
</g>
<g transform="translate(188, 122)" class="key keypos-14">
<rect rx="6" ry="6" x="-36" y="-36" width="71" height="71" class="key"/>
<text x="0" y="0" class="key tap">S</text>
</g>
<g transform="translate(262, 112)" class="key keypos-15">
<rect rx="6" ry="6" x="-36" y="-36" width="71" height="71" class="key"/>
<text x="0" y="0" class="key tap">D</text>
</g>
<g transform="translate(338, 122)" class="key keypos-16">
<rect rx="6" ry="6" x="-36" y="-36" width="71" height="71" class="key"/>
<text x="0" y="0" class="key tap">F</text>
</g>
<g transform="translate(412, 131)" class="key keypos-17">
<rect rx="6" ry="6" x="-36" y="-36" width="71" height="71" class="key"/>
<text x="0" y="0" class="key tap">G</text>
</g>
<g transform="translate(712, 131)" class="key keypos-18">
<rect rx="6" ry="6" x="-36" y="-36" width="71" height="71" class="key"/>
<text x="0" y="0" class="key tap">H</text>
</g>
<g transform="translate(788, 122)" class="key keypos-19">
<rect rx="6" ry="6" x="-36" y="-36" width="71" height="71" class="key"/>
<text x="0" y="0" class="key tap">J</text>
</g>
<g transform="translate(862, 112)" class="key keypos-20">
<rect rx="6" ry="6" x="-36" y="-36" width="71" height="71" class="key"/>
<text x="0" y="0" class="key tap">K</text>
</g>
<g transform="translate(938, 122)" class="key keypos-21">
<rect rx="6" ry="6" x="-36" y="-36" width="71" height="71" class="key"/>
<text x="0" y="0" class="key tap">L</text>
</g>
<g transform="translate(1012, 141)" class="key keypos-22">
<rect rx="6" ry="6" x="-36" y="-36" width="71" height="71" class="key"/>
<text x="0" y="0" class="key tap">;</text>
</g>
<g transform="translate(1088, 141)" class="key keypos-23">
<rect rx="6" ry="6" x="-36" y="-36" width="71" height="71" class="key"/>
<text x="0" y="0" class="key tap">&#x27;</text>
</g>
<g transform="translate(38, 216)" class="key keypos-24">
<rect rx="6" ry="6" x="-36" y="-36" width="71" height="71" class="key"/>
<text x="0" y="0" class="key tap">LSHFT</text>
</g>
<g transform="translate(112, 216)" class="key keypos-25">
<rect rx="6" ry="6" x="-36" y="-36" width="71" height="71" class="key"/>
<text x="0" y="0" class="key tap">Z</text>
</g>
<g transform="translate(188, 197)" class="key keypos-26">
<rect rx="6" ry="6" x="-36" y="-36" width="71" height="71" class="key"/>
<text x="0" y="0" class="key tap">X</text>
</g>
<g transform="translate(262, 188)" class="key keypos-27">
<rect rx="6" ry="6" x="-36" y="-36" width="71" height="71" class="key"/>
<text x="0" y="0" class="key tap">C</text>
</g>
<g transform="translate(338, 197)" class="key keypos-28">
<rect rx="6" ry="6" x="-36" y="-36" width="71" height="71" class="key"/>
<text x="0" y="0" class="key tap">V</text>
</g>
<g transform="translate(412, 206)" class="key keypos-29">
<rect rx="6" ry="6" x="-36" y="-36" width="71" height="71" class="key"/>
<text x="0" y="0" class="key tap">B</text>
</g>
<g transform="translate(712, 206)" class="key keypos-30">
<rect rx="6" ry="6" x="-36" y="-36" width="71" height="71" class="key"/>
<text x="0" y="0" class="key tap">N</text>
</g>
<g transform="translate(788, 197)" class="key keypos-31">
<rect rx="6" ry="6" x="-36" y="-36" width="71" height="71" class="key"/>
<text x="0" y="0" class="key tap">M</text>
</g>
<g transform="translate(862, 188)" class="key keypos-32">
<rect rx="6" ry="6" x="-36" y="-36" width="71" height="71" class="key"/>
<text x="0" y="0" class="key tap">,</text>
</g>
<g transform="translate(938, 197)" class="key keypos-33">
<rect rx="6" ry="6" x="-36" y="-36" width="71" height="71" class="key"/>
<text x="0" y="0" class="key tap">.</text>
</g>
<g transform="translate(1012, 216)" class="key keypos-34">
<rect rx="6" ry="6" x="-36" y="-36" width="71" height="71" class="key"/>
<text x="0" y="0" class="key tap">/</text>
</g>
<g transform="translate(1088, 216)" class="key keypos-35">
<rect rx="6" ry="6" x="-36" y="-36" width="71" height="71" class="key"/>
<text x="0" y="0" class="key tap">ESC</text>
</g>
<g transform="translate(300, 274)" class="key keypos-36">
<rect rx="6" ry="6" x="-36" y="-36" width="71" height="71" class="key"/>
<text x="0" y="0" class="key tap">LGUI</text>
</g>
<g transform="translate(382, 285) rotate(15.0)" class="key keypos-37">
<rect rx="6" ry="6" x="-36" y="-36" width="71" height="71" class="key"/>
<a href="#lower">
<text x="0" y="0" class="key tap layer-activator">lower</text>
</a></g>
<g transform="translate(470, 300) rotate(30.0)" class="key keypos-38">
<rect rx="6" ry="6" x="-36" y="-54" width="71" height="108" class="key"/>
<text x="0" y="0" class="key tap">SPACE</text>
</g>
<g transform="translate(655, 300) rotate(-30.0)" class="key keypos-39">
<rect rx="6" ry="6" x="-36" y="-54" width="71" height="108" class="key"/>
<text x="0" y="0" class="key tap">RET</text>
</g>
<g transform="translate(742, 285) rotate(-15.0)" class="key keypos-40">
<rect rx="6" ry="6" x="-36" y="-36" width="71" height="71" class="key"/>
<a href="#raise">
<text x="0" y="0" class="key tap layer-activator">raise</text>
</a></g>
<g transform="translate(825, 274)" class="key keypos-41">
<rect rx="6" ry="6" x="-36" y="-36" width="71" height="71" class="key"/>
<text x="0" y="0" class="key tap"><tspan style="font-size: 64%">&amp;studio_un…</tspan></text>
</g>
</g>
</g>
<g transform="translate(30, 424)" class="layer-lower">
<text x="0" y="28" class="label" id="lower">lower:</text>
<g transform="translate(0, 56)">
<g transform="translate(38, 66)" class="key keypos-0">
<rect rx="6" ry="6" x="-36" y="-36" width="71" height="71" class="key"/>
<text x="0" y="0" class="key tap">TAB</text>
</g>
<g transform="translate(112, 66)" class="key keypos-1">
<rect rx="6" ry="6" x="-36" y="-36" width="71" height="71" class="key"/>
<text x="0" y="0" class="key tap">1</text>
</g>
<g transform="translate(188, 47)" class="key keypos-2">
<rect rx="6" ry="6" x="-36" y="-36" width="71" height="71" class="key"/>
<text x="0" y="0" class="key tap">2</text>
</g>
<g transform="translate(262, 38)" class="key keypos-3">
<rect rx="6" ry="6" x="-36" y="-36" width="71" height="71" class="key"/>
<text x="0" y="0" class="key tap">3</text>
</g>
<g transform="translate(338, 47)" class="key keypos-4">
<rect rx="6" ry="6" x="-36" y="-36" width="71" height="71" class="key"/>
<text x="0" y="0" class="key tap">4</text>
</g>
<g transform="translate(412, 56)" class="key keypos-5">
<rect rx="6" ry="6" x="-36" y="-36" width="71" height="71" class="key"/>
<text x="0" y="0" class="key tap">5</text>
</g>
<g transform="translate(712, 56)" class="key keypos-6">
<rect rx="6" ry="6" x="-36" y="-36" width="71" height="71" class="key"/>
<text x="0" y="0" class="key tap">6</text>
</g>
<g transform="translate(788, 47)" class="key keypos-7">
<rect rx="6" ry="6" x="-36" y="-36" width="71" height="71" class="key"/>
<text x="0" y="0" class="key tap">7</text>
</g>
<g transform="translate(862, 38)" class="key keypos-8">
<rect rx="6" ry="6" x="-36" y="-36" width="71" height="71" class="key"/>
<text x="0" y="0" class="key tap">8</text>
</g>
<g transform="translate(938, 47)" class="key keypos-9">
<rect rx="6" ry="6" x="-36" y="-36" width="71" height="71" class="key"/>
<text x="0" y="0" class="key tap">9</text>
</g>
<g transform="translate(1012, 66)" class="key keypos-10">
<rect rx="6" ry="6" x="-36" y="-36" width="71" height="71" class="key"/>
<text x="0" y="0" class="key tap">0</text>
</g>
<g transform="translate(1088, 66)" class="key keypos-11">
<rect rx="6" ry="6" x="-36" y="-36" width="71" height="71" class="key"/>
<text x="0" y="0" class="key tap">BSPC</text>
</g>
<g transform="translate(38, 141)" class="key keypos-12">
<rect rx="6" ry="6" x="-36" y="-36" width="71" height="71" class="key"/>
<text x="0" y="0" class="key tap">
<tspan x="0" dy="-0.6em">BT</tspan><tspan x="0" dy="1.2em">CLR</tspan>
</text>
</g>
<g transform="translate(112, 141)" class="key keypos-13">
<rect rx="6" ry="6" x="-36" y="-36" width="71" height="71" class="key"/>
<text x="0" y="0" class="key tap">BT</text>
<text x="0" y="34" class="key hold">0</text>
</g>
<g transform="translate(188, 122)" class="key keypos-14">
<rect rx="6" ry="6" x="-36" y="-36" width="71" height="71" class="key"/>
<text x="0" y="0" class="key tap">BT</text>
<text x="0" y="34" class="key hold">1</text>
</g>
<g transform="translate(262, 112)" class="key keypos-15">
<rect rx="6" ry="6" x="-36" y="-36" width="71" height="71" class="key"/>
<text x="0" y="0" class="key tap">BT</text>
<text x="0" y="34" class="key hold">2</text>
</g>
<g transform="translate(338, 122)" class="key keypos-16">
<rect rx="6" ry="6" x="-36" y="-36" width="71" height="71" class="key"/>
<text x="0" y="0" class="key tap">BT</text>
<text x="0" y="34" class="key hold">3</text>
</g>
<g transform="translate(412, 131)" class="key keypos-17">
<rect rx="6" ry="6" x="-36" y="-36" width="71" height="71" class="key"/>
<text x="0" y="0" class="key tap">BT</text>
<text x="0" y="34" class="key hold">4</text>
</g>
<g transform="translate(712, 131)" class="key keypos-18">
<rect rx="6" ry="6" x="-36" y="-36" width="71" height="71" class="key"/>
<text x="0" y="0" class="key tap">LEFT</text>
</g>
<g transform="translate(788, 122)" class="key keypos-19">
<rect rx="6" ry="6" x="-36" y="-36" width="71" height="71" class="key"/>
<text x="0" y="0" class="key tap">DOWN</text>
</g>
<g transform="translate(862, 112)" class="key keypos-20">
<rect rx="6" ry="6" x="-36" y="-36" width="71" height="71" class="key"/>
<text x="0" y="0" class="key tap">UP</text>
</g>
<g transform="translate(938, 122)" class="key keypos-21">
<rect rx="6" ry="6" x="-36" y="-36" width="71" height="71" class="key"/>
<text x="0" y="0" class="key tap">RIGHT</text>
</g>
<g transform="translate(1012, 141)" class="key trans keypos-22">
<rect rx="6" ry="6" x="-36" y="-36" width="71" height="71" class="key trans"/>
<text x="0" y="0" class="key trans tap">▽</text>
</g>
<g transform="translate(1088, 141)" class="key trans keypos-23">
<rect rx="6" ry="6" x="-36" y="-36" width="71" height="71" class="key trans"/>
<text x="0" y="0" class="key trans tap">▽</text>
</g>
<g transform="translate(38, 216)" class="key keypos-24">
<rect rx="6" ry="6" x="-36" y="-36" width="71" height="71" class="key"/>
<text x="0" y="0" class="key tap">LSHFT</text>
</g>
<g transform="translate(112, 216)" class="key trans keypos-25">
<rect rx="6" ry="6" x="-36" y="-36" width="71" height="71" class="key trans"/>
<text x="0" y="0" class="key trans tap">▽</text>
</g>
<g transform="translate(188, 197)" class="key trans keypos-26">
<rect rx="6" ry="6" x="-36" y="-36" width="71" height="71" class="key trans"/>
<text x="0" y="0" class="key trans tap">▽</text>
</g>
<g transform="translate(262, 188)" class="key trans keypos-27">
<rect rx="6" ry="6" x="-36" y="-36" width="71" height="71" class="key trans"/>
<text x="0" y="0" class="key trans tap">▽</text>
</g>
<g transform="translate(338, 197)" class="key trans keypos-28">
<rect rx="6" ry="6" x="-36" y="-36" width="71" height="71" class="key trans"/>
<text x="0" y="0" class="key trans tap">▽</text>
</g>
<g transform="translate(412, 206)" class="key trans keypos-29">
<rect rx="6" ry="6" x="-36" y="-36" width="71" height="71" class="key trans"/>
<text x="0" y="0" class="key trans tap">▽</text>
</g>
<g transform="translate(712, 206)" class="key trans keypos-30">
<rect rx="6" ry="6" x="-36" y="-36" width="71" height="71" class="key trans"/>
<text x="0" y="0" class="key trans tap">▽</text>
</g>
<g transform="translate(788, 197)" class="key trans keypos-31">
<rect rx="6" ry="6" x="-36" y="-36" width="71" height="71" class="key trans"/>
<text x="0" y="0" class="key trans tap">▽</text>
</g>
<g transform="translate(862, 188)" class="key trans keypos-32">
<rect rx="6" ry="6" x="-36" y="-36" width="71" height="71" class="key trans"/>
<text x="0" y="0" class="key trans tap">▽</text>
</g>
<g transform="translate(938, 197)" class="key trans keypos-33">
<rect rx="6" ry="6" x="-36" y="-36" width="71" height="71" class="key trans"/>
<text x="0" y="0" class="key trans tap">▽</text>
</g>
<g transform="translate(1012, 216)" class="key trans keypos-34">
<rect rx="6" ry="6" x="-36" y="-36" width="71" height="71" class="key trans"/>
<text x="0" y="0" class="key trans tap">▽</text>
</g>
<g transform="translate(1088, 216)" class="key trans keypos-35">
<rect rx="6" ry="6" x="-36" y="-36" width="71" height="71" class="key trans"/>
<text x="0" y="0" class="key trans tap">▽</text>
</g>
<g transform="translate(300, 274)" class="key keypos-36">
<rect rx="6" ry="6" x="-36" y="-36" width="71" height="71" class="key"/>
<text x="0" y="0" class="key tap">LGUI</text>
</g>
<g transform="translate(382, 285) rotate(15.0)" class="key held keypos-37">
<rect rx="6" ry="6" x="-36" y="-36" width="71" height="71" class="key held"/>
</g>
<g transform="translate(470, 300) rotate(30.0)" class="key keypos-38">
<rect rx="6" ry="6" x="-36" y="-54" width="71" height="108" class="key"/>
<text x="0" y="0" class="key tap">SPACE</text>
</g>
<g transform="translate(655, 300) rotate(-30.0)" class="key keypos-39">
<rect rx="6" ry="6" x="-36" y="-54" width="71" height="108" class="key"/>
<text x="0" y="0" class="key tap">RET</text>
</g>
<g transform="translate(742, 285) rotate(-15.0)" class="key keypos-40">
<rect rx="6" ry="6" x="-36" y="-36" width="71" height="71" class="key"/>
<a href="#mouse">
<text x="0" y="0" class="key tap layer-activator">mouse</text>
</a></g>
<g transform="translate(825, 274)" class="key keypos-41">
<rect rx="6" ry="6" x="-36" y="-36" width="71" height="71" class="key"/>
<text x="0" y="0" class="key tap">RALT</text>
</g>
</g>
</g>
<g transform="translate(30, 848)" class="layer-raise">
<text x="0" y="28" class="label" id="raise">raise:</text>
<g transform="translate(0, 56)">
<g transform="translate(38, 66)" class="key keypos-0">
<rect rx="6" ry="6" x="-36" y="-36" width="71" height="71" class="key"/>
<text x="0" y="0" class="key tap">TAB</text>
</g>
<g transform="translate(112, 66)" class="key keypos-1">
<rect rx="6" ry="6" x="-36" y="-36" width="71" height="71" class="key"/>
<text x="0" y="0" class="key tap">!</text>
</g>
<g transform="translate(188, 47)" class="key keypos-2">
<rect rx="6" ry="6" x="-36" y="-36" width="71" height="71" class="key"/>
<text x="0" y="0" class="key tap">@</text>
</g>
<g transform="translate(262, 38)" class="key keypos-3">
<rect rx="6" ry="6" x="-36" y="-36" width="71" height="71" class="key"/>
<text x="0" y="0" class="key tap">#</text>
</g>
<g transform="translate(338, 47)" class="key keypos-4">
<rect rx="6" ry="6" x="-36" y="-36" width="71" height="71" class="key"/>
<text x="0" y="0" class="key tap">$</text>
</g>
<g transform="translate(412, 56)" class="key keypos-5">
<rect rx="6" ry="6" x="-36" y="-36" width="71" height="71" class="key"/>
<text x="0" y="0" class="key tap">%</text>
</g>
<g transform="translate(712, 56)" class="key keypos-6">
<rect rx="6" ry="6" x="-36" y="-36" width="71" height="71" class="key"/>
<text x="0" y="0" class="key tap">^</text>
</g>
<g transform="translate(788, 47)" class="key keypos-7">
<rect rx="6" ry="6" x="-36" y="-36" width="71" height="71" class="key"/>
<text x="0" y="0" class="key tap">&amp;</text>
</g>
<g transform="translate(862, 38)" class="key keypos-8">
<rect rx="6" ry="6" x="-36" y="-36" width="71" height="71" class="key"/>
<text x="0" y="0" class="key tap">*</text>
</g>
<g transform="translate(938, 47)" class="key keypos-9">
<rect rx="6" ry="6" x="-36" y="-36" width="71" height="71" class="key"/>
<text x="0" y="0" class="key tap">(</text>
</g>
<g transform="translate(1012, 66)" class="key keypos-10">
<rect rx="6" ry="6" x="-36" y="-36" width="71" height="71" class="key"/>
<text x="0" y="0" class="key tap">)</text>
</g>
<g transform="translate(1088, 66)" class="key keypos-11">
<rect rx="6" ry="6" x="-36" y="-36" width="71" height="71" class="key"/>
<text x="0" y="0" class="key tap">BSPC</text>
</g>
<g transform="translate(38, 141)" class="key keypos-12">
<rect rx="6" ry="6" x="-36" y="-36" width="71" height="71" class="key"/>
<text x="0" y="0" class="key tap">LCTRL</text>
</g>
<g transform="translate(112, 141)" class="key trans keypos-13">
<rect rx="6" ry="6" x="-36" y="-36" width="71" height="71" class="key trans"/>
<text x="0" y="0" class="key trans tap">▽</text>
</g>
<g transform="translate(188, 122)" class="key trans keypos-14">
<rect rx="6" ry="6" x="-36" y="-36" width="71" height="71" class="key trans"/>
<text x="0" y="0" class="key trans tap">▽</text>
</g>
<g transform="translate(262, 112)" class="key trans keypos-15">
<rect rx="6" ry="6" x="-36" y="-36" width="71" height="71" class="key trans"/>
<text x="0" y="0" class="key trans tap">▽</text>
</g>
<g transform="translate(338, 122)" class="key trans keypos-16">
<rect rx="6" ry="6" x="-36" y="-36" width="71" height="71" class="key trans"/>
<text x="0" y="0" class="key trans tap">▽</text>
</g>
<g transform="translate(412, 131)" class="key trans keypos-17">
<rect rx="6" ry="6" x="-36" y="-36" width="71" height="71" class="key trans"/>
<text x="0" y="0" class="key trans tap">▽</text>
</g>
<g transform="translate(712, 131)" class="key keypos-18">
<rect rx="6" ry="6" x="-36" y="-36" width="71" height="71" class="key"/>
<text x="0" y="0" class="key tap">-</text>
</g>
<g transform="translate(788, 122)" class="key keypos-19">
<rect rx="6" ry="6" x="-36" y="-36" width="71" height="71" class="key"/>
<text x="0" y="0" class="key tap">=</text>
</g>
<g transform="translate(862, 112)" class="key keypos-20">
<rect rx="6" ry="6" x="-36" y="-36" width="71" height="71" class="key"/>
<text x="0" y="0" class="key tap">[</text>
</g>
<g transform="translate(938, 122)" class="key keypos-21">
<rect rx="6" ry="6" x="-36" y="-36" width="71" height="71" class="key"/>
<text x="0" y="0" class="key tap">]</text>
</g>
<g transform="translate(1012, 141)" class="key keypos-22">
<rect rx="6" ry="6" x="-36" y="-36" width="71" height="71" class="key"/>
<text x="0" y="0" class="key tap">\</text>
</g>
<g transform="translate(1088, 141)" class="key keypos-23">
<rect rx="6" ry="6" x="-36" y="-36" width="71" height="71" class="key"/>
<text x="0" y="0" class="key tap">`</text>
</g>
<g transform="translate(38, 216)" class="key keypos-24">
<rect rx="6" ry="6" x="-36" y="-36" width="71" height="71" class="key"/>
<text x="0" y="0" class="key tap">LSHFT</text>
</g>
<g transform="translate(112, 216)" class="key trans keypos-25">
<rect rx="6" ry="6" x="-36" y="-36" width="71" height="71" class="key trans"/>
<text x="0" y="0" class="key trans tap">▽</text>
</g>
<g transform="translate(188, 197)" class="key trans keypos-26">
<rect rx="6" ry="6" x="-36" y="-36" width="71" height="71" class="key trans"/>
<text x="0" y="0" class="key trans tap">▽</text>
</g>
<g transform="translate(262, 188)" class="key trans keypos-27">
<rect rx="6" ry="6" x="-36" y="-36" width="71" height="71" class="key trans"/>
<text x="0" y="0" class="key trans tap">▽</text>
</g>
<g transform="translate(338, 197)" class="key trans keypos-28">
<rect rx="6" ry="6" x="-36" y="-36" width="71" height="71" class="key trans"/>
<text x="0" y="0" class="key trans tap">▽</text>
</g>
<g transform="translate(412, 206)" class="key trans keypos-29">
<rect rx="6" ry="6" x="-36" y="-36" width="71" height="71" class="key trans"/>
<text x="0" y="0" class="key trans tap">▽</text>
</g>
<g transform="translate(712, 206)" class="key keypos-30">
<rect rx="6" ry="6" x="-36" y="-36" width="71" height="71" class="key"/>
<text x="0" y="0" class="key tap">_</text>
</g>
<g transform="translate(788, 197)" class="key keypos-31">
<rect rx="6" ry="6" x="-36" y="-36" width="71" height="71" class="key"/>
<text x="0" y="0" class="key tap">+</text>
</g>
<g transform="translate(862, 188)" class="key keypos-32">
<rect rx="6" ry="6" x="-36" y="-36" width="71" height="71" class="key"/>
<text x="0" y="0" class="key tap">{</text>
</g>
<g transform="translate(938, 197)" class="key keypos-33">
<rect rx="6" ry="6" x="-36" y="-36" width="71" height="71" class="key"/>
<text x="0" y="0" class="key tap">}</text>
</g>
<g transform="translate(1012, 216)" class="key keypos-34">
<rect rx="6" ry="6" x="-36" y="-36" width="71" height="71" class="key"/>
<text x="0" y="0" class="key tap">|</text>
</g>
<g transform="translate(1088, 216)" class="key keypos-35">
<rect rx="6" ry="6" x="-36" y="-36" width="71" height="71" class="key"/>
<a href="#mouse">
<text x="0" y="0" class="key tap layer-activator">mouse</text>
</a></g>
<g transform="translate(300, 274)" class="key keypos-36">
<rect rx="6" ry="6" x="-36" y="-36" width="71" height="71" class="key"/>
<text x="0" y="0" class="key tap">LGUI</text>
</g>
<g transform="translate(382, 285) rotate(15.0)" class="key trans keypos-37">
<rect rx="6" ry="6" x="-36" y="-36" width="71" height="71" class="key trans"/>
<text x="0" y="0" class="key trans tap">▽</text>
</g>
<g transform="translate(470, 300) rotate(30.0)" class="key keypos-38">
<rect rx="6" ry="6" x="-36" y="-54" width="71" height="108" class="key"/>
<text x="0" y="0" class="key tap">SPACE</text>
</g>
<g transform="translate(655, 300) rotate(-30.0)" class="key keypos-39">
<rect rx="6" ry="6" x="-36" y="-54" width="71" height="108" class="key"/>
<text x="0" y="0" class="key tap">RET</text>
</g>
<g transform="translate(742, 285) rotate(-15.0)" class="key held keypos-40">
<rect rx="6" ry="6" x="-36" y="-36" width="71" height="71" class="key held"/>
</g>
<g transform="translate(825, 274)" class="key keypos-41">
<rect rx="6" ry="6" x="-36" y="-36" width="71" height="71" class="key"/>
<text x="0" y="0" class="key tap">RALT</text>
</g>
</g>
</g>
<g transform="translate(30, 1272)" class="layer-mouse">
<text x="0" y="28" class="label" id="mouse">mouse:</text>
<g transform="translate(0, 56)">
<g transform="translate(38, 66)" class="key trans keypos-0">
<rect rx="6" ry="6" x="-36" y="-36" width="71" height="71" class="key trans"/>
<text x="0" y="0" class="key trans tap">▽</text>
</g>
<g transform="translate(112, 66)" class="key keypos-1">
<rect rx="6" ry="6" x="-36" y="-36" width="71" height="71" class="key"/>
<text x="0" y="0" class="key tap">
<tspan x="0" dy="-0.6em">&amp;mkp</tspan><tspan x="0" dy="1.2em">LCLK</tspan>
</text>
</g>
<g transform="translate(188, 47)" class="key keypos-2">
<rect rx="6" ry="6" x="-36" y="-36" width="71" height="71" class="key"/>
<text x="0" y="0" class="key tap">
<tspan x="0" dy="-0.6em">&amp;mkp</tspan><tspan x="0" dy="1.2em">RCLK</tspan>
</text>
</g>
<g transform="translate(262, 38)" class="key keypos-3">
<rect rx="6" ry="6" x="-36" y="-36" width="71" height="71" class="key"/>
<text x="0" y="0" class="key tap">
<tspan x="0" dy="-0.6em">&amp;mkp</tspan><tspan x="0" dy="1.2em">MCLK</tspan>
</text>
</g>
<g transform="translate(338, 47)" class="key trans keypos-4">
<rect rx="6" ry="6" x="-36" y="-36" width="71" height="71" class="key trans"/>
<text x="0" y="0" class="key trans tap">▽</text>
</g>
<g transform="translate(412, 56)" class="key trans keypos-5">
<rect rx="6" ry="6" x="-36" y="-36" width="71" height="71" class="key trans"/>
<text x="0" y="0" class="key trans tap">▽</text>
</g>
<g transform="translate(712, 56)" class="key trans keypos-6">
<rect rx="6" ry="6" x="-36" y="-36" width="71" height="71" class="key trans"/>
<text x="0" y="0" class="key trans tap">▽</text>
</g>
<g transform="translate(788, 47)" class="key trans keypos-7">
<rect rx="6" ry="6" x="-36" y="-36" width="71" height="71" class="key trans"/>
<text x="0" y="0" class="key trans tap">▽</text>
</g>
<g transform="translate(862, 38)" class="key trans keypos-8">
<rect rx="6" ry="6" x="-36" y="-36" width="71" height="71" class="key trans"/>
<text x="0" y="0" class="key trans tap">▽</text>
</g>
<g transform="translate(938, 47)" class="key trans keypos-9">
<rect rx="6" ry="6" x="-36" y="-36" width="71" height="71" class="key trans"/>
<text x="0" y="0" class="key trans tap">▽</text>
</g>
<g transform="translate(1012, 66)" class="key trans keypos-10">
<rect rx="6" ry="6" x="-36" y="-36" width="71" height="71" class="key trans"/>
<text x="0" y="0" class="key trans tap">▽</text>
</g>
<g transform="translate(1088, 66)" class="key trans keypos-11">
<rect rx="6" ry="6" x="-36" y="-36" width="71" height="71" class="key trans"/>
<text x="0" y="0" class="key trans tap">▽</text>
</g>
<g transform="translate(38, 141)" class="key trans keypos-12">
<rect rx="6" ry="6" x="-36" y="-36" width="71" height="71" class="key trans"/>
<text x="0" y="0" class="key trans tap">▽</text>
</g>
<g transform="translate(112, 141)" class="key trans keypos-13">
<rect rx="6" ry="6" x="-36" y="-36" width="71" height="71" class="key trans"/>
<text x="0" y="0" class="key trans tap">▽</text>
</g>
<g transform="translate(188, 122)" class="key keypos-14">
<rect rx="6" ry="6" x="-36" y="-36" width="71" height="71" class="key"/>
<text x="0" y="0" class="key tap">
<tspan x="0" dy="-0.6em">&amp;mmv</tspan><tspan x="0" dy="1.2em">MOVE_UP</tspan>
</text>
</g>
<g transform="translate(262, 112)" class="key trans keypos-15">
<rect rx="6" ry="6" x="-36" y="-36" width="71" height="71" class="key trans"/>
<text x="0" y="0" class="key trans tap">▽</text>
</g>
<g transform="translate(338, 122)" class="key trans keypos-16">
<rect rx="6" ry="6" x="-36" y="-36" width="71" height="71" class="key trans"/>
<text x="0" y="0" class="key trans tap">▽</text>
</g>
<g transform="translate(412, 131)" class="key trans keypos-17">
<rect rx="6" ry="6" x="-36" y="-36" width="71" height="71" class="key trans"/>
<text x="0" y="0" class="key trans tap">▽</text>
</g>
<g transform="translate(712, 131)" class="key trans keypos-18">
<rect rx="6" ry="6" x="-36" y="-36" width="71" height="71" class="key trans"/>
<text x="0" y="0" class="key trans tap">▽</text>
</g>
<g transform="translate(788, 122)" class="key keypos-19">
<rect rx="6" ry="6" x="-36" y="-36" width="71" height="71" class="key"/>
<text x="0" y="0" class="key tap">
<tspan x="0" dy="-0.6em">&amp;msc</tspan><tspan x="0" dy="1.2em">SCRL_UP</tspan>
</text>
</g>
<g transform="translate(862, 112)" class="key trans keypos-20">
<rect rx="6" ry="6" x="-36" y="-36" width="71" height="71" class="key trans"/>
<text x="0" y="0" class="key trans tap">▽</text>
</g>
<g transform="translate(938, 122)" class="key trans keypos-21">
<rect rx="6" ry="6" x="-36" y="-36" width="71" height="71" class="key trans"/>
<text x="0" y="0" class="key trans tap">▽</text>
</g>
<g transform="translate(1012, 141)" class="key trans keypos-22">
<rect rx="6" ry="6" x="-36" y="-36" width="71" height="71" class="key trans"/>
<text x="0" y="0" class="key trans tap">▽</text>
</g>
<g transform="translate(1088, 141)" class="key trans keypos-23">
<rect rx="6" ry="6" x="-36" y="-36" width="71" height="71" class="key trans"/>
<text x="0" y="0" class="key trans tap">▽</text>
</g>
<g transform="translate(38, 216)" class="key trans keypos-24">
<rect rx="6" ry="6" x="-36" y="-36" width="71" height="71" class="key trans"/>
<text x="0" y="0" class="key trans tap">▽</text>
</g>
<g transform="translate(112, 216)" class="key keypos-25">
<rect rx="6" ry="6" x="-36" y="-36" width="71" height="71" class="key"/>
<text x="0" y="0" class="key tap">
<tspan x="0" dy="-0.6em" style="font-size: 78%">&amp;mmv</tspan><tspan x="0" dy="1.2em" style="font-size: 78%">MOVE_LEFT</tspan>
</text>
</g>
<g transform="translate(188, 197)" class="key keypos-26">
<rect rx="6" ry="6" x="-36" y="-36" width="71" height="71" class="key"/>
<text x="0" y="0" class="key tap">
<tspan x="0" dy="-0.6em" style="font-size: 78%">&amp;mmv</tspan><tspan x="0" dy="1.2em" style="font-size: 78%">MOVE_DOWN</tspan>
</text>
</g>
<g transform="translate(262, 188)" class="key keypos-27">
<rect rx="6" ry="6" x="-36" y="-36" width="71" height="71" class="key"/>
<text x="0" y="0" class="key tap">
<tspan x="0" dy="-0.6em" style="font-size: 70%">&amp;mmv</tspan><tspan x="0" dy="1.2em" style="font-size: 70%">MOVE_RIGHT</tspan>
</text>
</g>
<g transform="translate(338, 197)" class="key trans keypos-28">
<rect rx="6" ry="6" x="-36" y="-36" width="71" height="71" class="key trans"/>
<text x="0" y="0" class="key trans tap">▽</text>
</g>
<g transform="translate(412, 206)" class="key trans keypos-29">
<rect rx="6" ry="6" x="-36" y="-36" width="71" height="71" class="key trans"/>
<text x="0" y="0" class="key trans tap">▽</text>
</g>
<g transform="translate(712, 206)" class="key keypos-30">
<rect rx="6" ry="6" x="-36" y="-36" width="71" height="71" class="key"/>
<text x="0" y="0" class="key tap">
<tspan x="0" dy="-0.6em" style="font-size: 78%">&amp;msc</tspan><tspan x="0" dy="1.2em" style="font-size: 78%">SCRL_LEFT</tspan>
</text>
</g>
<g transform="translate(788, 197)" class="key keypos-31">
<rect rx="6" ry="6" x="-36" y="-36" width="71" height="71" class="key"/>
<text x="0" y="0" class="key tap">
<tspan x="0" dy="-0.6em" style="font-size: 78%">&amp;msc</tspan><tspan x="0" dy="1.2em" style="font-size: 78%">SCRL_DOWN</tspan>
</text>
</g>
<g transform="translate(862, 188)" class="key keypos-32">
<rect rx="6" ry="6" x="-36" y="-36" width="71" height="71" class="key"/>
<text x="0" y="0" class="key tap">
<tspan x="0" dy="-0.6em" style="font-size: 70%">&amp;msc</tspan><tspan x="0" dy="1.2em" style="font-size: 70%">SCRL_RIGHT</tspan>
</text>
</g>
<g transform="translate(938, 197)" class="key trans keypos-33">
<rect rx="6" ry="6" x="-36" y="-36" width="71" height="71" class="key trans"/>
<text x="0" y="0" class="key trans tap">▽</text>
</g>
<g transform="translate(1012, 216)" class="key trans keypos-34">
<rect rx="6" ry="6" x="-36" y="-36" width="71" height="71" class="key trans"/>
<text x="0" y="0" class="key trans tap">▽</text>
</g>
<g transform="translate(1088, 216)" class="key trans keypos-35">
<rect rx="6" ry="6" x="-36" y="-36" width="71" height="71" class="key trans"/>
<text x="0" y="0" class="key trans tap">▽</text>
</g>
<g transform="translate(300, 274)" class="key trans keypos-36">
<rect rx="6" ry="6" x="-36" y="-36" width="71" height="71" class="key trans"/>
<text x="0" y="0" class="key trans tap">▽</text>
</g>
<g transform="translate(382, 285) rotate(15.0)" class="key held keypos-37">
<rect rx="6" ry="6" x="-36" y="-36" width="71" height="71" class="key held"/>
</g>
<g transform="translate(470, 300) rotate(30.0)" class="key trans keypos-38">
<rect rx="6" ry="6" x="-36" y="-54" width="71" height="108" class="key trans"/>
<text x="0" y="0" class="key trans tap">▽</text>
</g>
<g transform="translate(655, 300) rotate(-30.0)" class="key trans keypos-39">
<rect rx="6" ry="6" x="-36" y="-54" width="71" height="108" class="key trans"/>
<text x="0" y="0" class="key trans tap">▽</text>
</g>
<g transform="translate(742, 285) rotate(-15.0)" class="key held keypos-40">
<rect rx="6" ry="6" x="-36" y="-36" width="71" height="71" class="key held"/>
</g>
<g transform="translate(825, 274)" class="key trans keypos-41">
<rect rx="6" ry="6" x="-36" y="-36" width="71" height="71" class="key trans"/>
<text x="0" y="0" class="key trans tap">▽</text>
</g>
</g>
</g>
</svg>
